<?xml version="1.0" ?><!DOCTYPE svg  PUBLIC '-//W3C//DTD SVG 1.1//EN'  'http://www.w3.org/Graphics/SVG/1.1/DTD/svg11.dtd'><svg width="512px" height="512px" viewBox="0 0 512 512" enable-background="new 0 0 512 512" id="Product" version="1.1" xml:space="preserve" xmlns="http://www.w3.org/2000/svg" xmlns:xlink="http://www.w3.org/1999/xlink"><g><path d="M313.86,454.027c-18.714,2.334-38.18,3.518-57.86,3.518c-110.517,0-203.886-38.453-203.886-83.968   c0-21.97,22.546-43.737,61.858-59.722c3.465-1.409,5.132-5.361,3.724-8.827c-1.409-3.466-5.36-5.136-8.827-3.724   c-45.335,18.435-70.303,44.102-70.303,72.272c0,54.683,95.509,97.517,217.434,97.517c20.239,0,40.27-1.219,59.537-3.622   c3.712-0.463,6.347-3.849,5.884-7.56C320.957,456.199,317.56,453.563,313.86,454.027z"/><path d="M436.063,412.275c-18.577,14.383-46.318,26.232-80.226,34.268c-3.641,0.862-5.893,4.514-5.029,8.154   c0.738,3.114,3.519,5.213,6.586,5.213c0.518,0,1.043-0.061,1.568-0.184c35.771-8.479,65.301-21.182,85.395-36.738   c2.958-2.29,3.5-6.545,1.209-9.503C443.277,410.527,439.022,409.986,436.063,412.275z"/><path d="M469.657,354.996c-1.427-3.457-5.387-5.108-8.847-3.676c-3.458,1.428-5.104,5.389-3.676,8.847   c1.826,4.419,2.751,8.931,2.751,13.41c0,4.917-1.115,9.866-3.313,14.709c-1.547,3.407-0.038,7.423,3.368,8.969   c0.909,0.412,1.86,0.608,2.796,0.608c2.576,0,5.039-1.479,6.172-3.977c3.003-6.615,4.525-13.448,4.525-20.31   C473.434,367.314,472.164,361.063,469.657,354.996z"/><path d="M444.361,324.17c-4.848-3.754-10.325-7.394-16.279-10.817c-3.247-1.868-7.387-0.749-9.25,2.495   c-1.865,3.244-0.748,7.385,2.496,9.25c5.42,3.117,10.379,6.408,14.74,9.785c1.234,0.955,2.693,1.418,4.143,1.418   c2.022,0,4.025-0.904,5.361-2.628C447.861,330.715,447.32,326.461,444.361,324.17z"/><path d="M151.339,348.244l101.399,55.691c0.117,0.064,0.238,0.111,0.357,0.167c0.121,0.058,0.239,0.12,0.363,0.171   c0.183,0.074,0.367,0.131,0.553,0.188c0.088,0.027,0.175,0.063,0.265,0.086c0.232,0.061,0.467,0.104,0.702,0.14   c0.05,0.008,0.1,0.022,0.149,0.028c0.288,0.037,0.578,0.059,0.866,0.059c0.002,0,0.004-0.001,0.006-0.001s0.004,0.001,0.006,0.001   c0.288,0,0.578-0.021,0.866-0.059c0.05-0.006,0.1-0.021,0.149-0.028c0.235-0.036,0.47-0.079,0.702-0.14   c0.09-0.023,0.177-0.059,0.265-0.086c0.186-0.057,0.37-0.113,0.553-0.188c0.124-0.051,0.242-0.113,0.363-0.171   c0.119-0.056,0.24-0.103,0.357-0.167l101.398-55.691c2.166-1.189,3.514-3.466,3.514-5.938V217.471c0-0.03-0.006-0.058-0.006-0.088   s0.004-0.06,0.004-0.09c-0.003-0.109-0.023-0.215-0.031-0.323c-0.013-0.168-0.023-0.336-0.049-0.501   c-0.02-0.138-0.051-0.271-0.08-0.406c-0.034-0.161-0.068-0.321-0.113-0.477c-0.039-0.133-0.086-0.262-0.133-0.392   c-0.055-0.152-0.11-0.304-0.176-0.452c-0.055-0.125-0.117-0.247-0.18-0.369c-0.074-0.143-0.15-0.285-0.234-0.423   c-0.071-0.117-0.146-0.229-0.225-0.341c-0.093-0.133-0.188-0.262-0.29-0.388c-0.087-0.107-0.177-0.211-0.27-0.313   c-0.108-0.118-0.22-0.232-0.337-0.343c-0.102-0.097-0.206-0.19-0.314-0.281c-0.121-0.103-0.248-0.198-0.379-0.292   c-0.117-0.085-0.234-0.167-0.357-0.245c-0.053-0.033-0.101-0.074-0.155-0.106c-0.087-0.051-0.18-0.088-0.269-0.136   c-0.08-0.043-0.154-0.095-0.236-0.135l-101.4-48.922c-1.859-0.898-4.027-0.898-5.887,0l-101.4,48.922   c-0.083,0.04-0.156,0.092-0.236,0.135c-0.089,0.048-0.182,0.085-0.269,0.136c-0.055,0.032-0.102,0.073-0.155,0.106   c-0.123,0.078-0.241,0.16-0.358,0.245c-0.13,0.094-0.257,0.189-0.379,0.292c-0.108,0.091-0.212,0.185-0.314,0.281   c-0.117,0.11-0.229,0.225-0.337,0.343c-0.093,0.103-0.183,0.206-0.27,0.313c-0.102,0.126-0.197,0.255-0.289,0.388   c-0.078,0.112-0.154,0.225-0.225,0.341c-0.084,0.138-0.161,0.28-0.234,0.423c-0.063,0.122-0.125,0.244-0.18,0.369   c-0.065,0.148-0.121,0.3-0.176,0.452c-0.046,0.13-0.093,0.259-0.132,0.392c-0.045,0.156-0.08,0.316-0.114,0.477   c-0.029,0.135-0.06,0.268-0.081,0.406c-0.025,0.165-0.036,0.333-0.048,0.501c-0.008,0.108-0.028,0.214-0.031,0.323   c-0.001,0.03,0.004,0.06,0.004,0.09c0,0.03-0.006,0.059-0.006,0.088v124.835C147.827,344.778,149.173,347.055,151.339,348.244z    M161.375,228.921l87.851,48.251v84.529c0,3.742,3.033,6.775,6.774,6.775c3.742,0,6.774-3.033,6.774-6.775v-88.538   c0-0.14-0.021-0.274-0.028-0.412c-0.007-0.109-0.01-0.217-0.021-0.325c-0.018-0.158-0.044-0.313-0.072-0.469   c-0.02-0.107-0.041-0.213-0.064-0.318c-0.026-0.11-0.045-0.223-0.076-0.33c-0.016-0.055-0.039-0.107-0.057-0.162   c-0.057-0.184-0.117-0.367-0.189-0.545c-0.013-0.03-0.021-0.063-0.033-0.094c-0.042-0.098-0.098-0.188-0.145-0.283   c-0.047-0.098-0.094-0.193-0.146-0.289c-0.079-0.146-0.164-0.289-0.255-0.43c-0.057-0.09-0.117-0.176-0.179-0.262   c-0.06-0.085-0.111-0.175-0.175-0.256c-0.024-0.031-0.053-0.059-0.077-0.09c-0.122-0.149-0.254-0.291-0.389-0.431   c-0.036-0.038-0.067-0.081-0.105-0.118c-0.081-0.08-0.17-0.15-0.255-0.227c-0.081-0.072-0.164-0.143-0.249-0.211   c-0.124-0.102-0.249-0.199-0.38-0.291c-0.086-0.061-0.174-0.112-0.262-0.168c-0.119-0.076-0.231-0.16-0.355-0.229l-89.879-49.364   L256,176.071l86.617,41.79l-60.806,33.396c-3.279,1.801-4.478,5.92-2.677,9.2c0.652,1.186,1.611,2.088,2.72,2.686   c1.956,1.056,4.386,1.139,6.479-0.01l62.291-34.212v109.378L256,390.269l-94.625-51.97V228.921z"/><path d="M60.444,203.923c3.782,2.461,7.52,6.119,11.111,10.875c2.254,2.986,6.503,3.577,9.489,1.323   c2.985-2.254,3.578-6.502,1.323-9.489c-2.666-3.531-5.453-6.62-8.333-9.242c4.217-4.926,10.307-12.657,15.3-21.438   c2.797,7.18,6.872,15.037,12.666,21.21c-5.278,7.478-14.516,22.099-18.046,37.202c-0.852,3.642,1.412,7.287,5.055,8.138   c0.518,0.121,1.037,0.18,1.547,0.18c3.076-0.001,5.86-2.11,6.591-5.235c4.244-18.154,19.069-36.721,19.216-36.902   c1.152-1.426,1.675-3.259,1.453-5.078c-0.222-1.819-1.173-3.47-2.634-4.578c-13.718-10.393-17.896-36.451-17.935-36.705   c-0.494-3.233-3.226-5.651-6.495-5.75c-3.255-0.09-6.141,2.154-6.826,5.352c-3.933,18.35-24.425,39.514-24.629,39.723   c-1.419,1.451-2.113,3.462-1.891,5.479C57.627,201.005,58.743,202.816,60.444,203.923z"/><path d="M223.556,96.399c4.034,2.625,8.008,6.602,11.812,11.819c2.204,3.023,6.443,3.689,9.465,1.482   c3.023-2.204,3.687-6.441,1.483-9.465c-2.92-4.006-5.988-7.474-9.17-10.369c4.216-4.926,10.307-12.657,15.3-21.438   c2.797,7.18,6.871,15.037,12.666,21.21c-5.278,7.478-14.516,22.1-18.046,37.202c-0.852,3.643,1.412,7.286,5.055,8.138   c0.518,0.121,1.037,0.179,1.547,0.179c3.076,0,5.859-2.11,6.59-5.234c4.244-18.154,19.07-36.722,19.217-36.903   c1.152-1.426,1.676-3.258,1.453-5.078s-1.173-3.472-2.634-4.578c-13.72-10.393-17.896-36.451-17.936-36.705   c-0.493-3.233-3.226-5.651-6.494-5.75c-3.274-0.105-6.141,2.154-6.826,5.353c-3.933,18.35-24.426,39.513-24.63,39.721   c-1.419,1.452-2.113,3.463-1.891,5.479C220.739,93.481,221.855,95.293,223.556,96.399z"/><path d="M385.788,185.49c2.993,1.947,5.979,4.664,8.873,8.075c2.421,2.855,6.696,3.206,9.548,0.784   c2.854-2.42,3.204-6.696,0.783-9.548c-1.82-2.147-3.697-4.099-5.615-5.844c4.216-4.926,10.307-12.657,15.3-21.438   c2.798,7.18,6.87,15.037,12.665,21.21c-5.277,7.479-14.516,22.1-18.045,37.203c-0.852,3.642,1.412,7.286,5.055,8.137   c0.518,0.122,1.037,0.18,1.547,0.18c3.076-0.001,5.86-2.111,6.591-5.235c4.243-18.155,19.069-36.722,19.216-36.902   c1.152-1.426,1.676-3.259,1.453-5.078c-0.222-1.819-1.172-3.472-2.633-4.578c-13.72-10.393-17.896-36.451-17.936-36.706   c-0.494-3.233-3.226-5.651-6.494-5.75c-3.269-0.083-6.142,2.154-6.826,5.352c-3.934,18.35-24.427,39.513-24.631,39.722   c-1.42,1.452-2.113,3.463-1.891,5.48C382.971,182.571,384.086,184.383,385.788,185.49z"/></g></svg>